<svg width="232" height="40" viewBox="0 0 232 40" fill="none" xmlns="http://www.w3.org/2000/svg">
<mask id="path-1-outside-1_1_22" maskUnits="userSpaceOnUse" x="0" y="0" width="232" height="40" fill="black">
<rect fill="white" width="232" height="40"/>
<path d="M8.19895 20.2151H24.3246V26.4289H8.19895V20.2151ZM8.77486 38.6176H1V5.15849H26.3883V11.3723H8.77486V38.6176ZM41.409 39C39.2653 39 37.3456 38.5857 35.6498 37.7572C33.9861 36.9287 32.6902 35.67 31.7624 33.9811C30.8345 32.2604 30.3706 30.0776 30.3706 27.4327V12.9019H37.8575V26.3333C37.8575 28.4683 38.3054 30.0457 39.2013 31.0654C40.1292 32.0532 41.425 32.5472 43.0887 32.5472C44.2406 32.5472 45.2644 32.3082 46.1603 31.8302C47.0561 31.3203 47.76 30.5556 48.272 29.5358C48.7839 28.4843 49.0399 27.1778 49.0399 25.6164V12.9019H56.5268V38.6176H49.4238V31.5434L50.7196 33.5987C49.8557 35.3832 48.5759 36.7375 46.8802 37.6616C45.2164 38.5539 43.3927 39 41.409 39ZM63.4629 38.6176V12.9019H70.6138V20.1673L69.606 18.0642C70.3739 16.2478 71.6057 14.8776 73.3014 13.9535C74.9972 12.9975 77.0609 12.5195 79.4925 12.5195V19.4025C79.1726 19.3706 78.8846 19.3547 78.6287 19.3547C78.3727 19.3229 78.1007 19.3069 77.8128 19.3069C75.7651 19.3069 74.1013 19.8964 72.8215 21.0755C71.5737 22.2226 70.9498 24.0231 70.9498 26.4767V38.6176H63.4629ZM99.6848 12.5195C101.733 12.5195 103.556 12.9338 105.156 13.7623C106.788 14.5589 108.068 15.8017 108.995 17.4906C109.923 19.1476 110.387 21.2826 110.387 23.8956V38.6176H102.9V25.0428C102.9 22.9715 102.436 21.4419 101.509 20.4541C100.613 19.4662 99.3329 18.9723 97.6691 18.9723C96.4853 18.9723 95.4134 19.2273 94.4536 19.7371C93.5257 20.2151 92.7898 20.9639 92.2459 21.9836C91.734 23.0034 91.478 24.3099 91.478 25.9031V38.6176H83.9911V12.9019H91.1421V20.0239L89.7983 17.873C90.7261 16.1522 92.0539 14.8298 93.7817 13.9057C95.5094 12.9816 97.4771 12.5195 99.6848 12.5195ZM117.174 38.6176V12.9019H124.661V38.6176H117.174ZM120.917 9.31698C119.541 9.31698 118.422 8.91866 117.558 8.12201C116.694 7.32537 116.262 6.33753 116.262 5.15849C116.262 3.97946 116.694 2.99162 117.558 2.19497C118.422 1.39832 119.541 1 120.917 1C122.293 1 123.413 1.38239 124.277 2.14717C125.141 2.88009 125.573 3.83606 125.573 5.0151C125.573 6.25786 125.141 7.2935 124.277 8.12201C123.445 8.91866 122.325 9.31698 120.917 9.31698ZM142.168 39C139.128 39 136.76 38.2352 135.065 36.7057C133.369 35.1442 132.521 32.834 132.521 29.7748V7.21384H140.008V29.6792C140.008 30.7627 140.296 31.6071 140.872 32.2126C141.448 32.7862 142.232 33.073 143.223 33.073C144.407 33.073 145.415 32.7543 146.247 32.117L148.263 37.3748C147.495 37.9166 146.567 38.3308 145.479 38.6176C144.423 38.8725 143.319 39 142.168 39ZM128.538 19.2113V13.4755H146.439V19.2113H128.538ZM163.36 39C161.216 39 159.296 38.5857 157.601 37.7572C155.937 36.9287 154.641 35.67 153.713 33.9811C152.785 32.2604 152.322 30.0776 152.322 27.4327V12.9019H159.808V26.3333C159.808 28.4683 160.256 30.0457 161.152 31.0654C162.08 32.0532 163.376 32.5472 165.04 32.5472C166.191 32.5472 167.215 32.3082 168.111 31.8302C169.007 31.3203 169.711 30.5556 170.223 29.5358C170.735 28.4843 170.991 27.1778 170.991 25.6164V12.9019H178.478V38.6176H171.375V31.5434L172.671 33.5987C171.807 35.3832 170.527 36.7375 168.831 37.6616C167.167 38.5539 165.344 39 163.36 39ZM185.414 38.6176V12.9019H192.565V20.1673L191.557 18.0642C192.325 16.2478 193.557 14.8776 195.252 13.9535C196.948 12.9975 199.012 12.5195 201.443 12.5195V19.4025C201.123 19.3706 200.836 19.3547 200.58 19.3547C200.324 19.3229 200.052 19.3069 199.764 19.3069C197.716 19.3069 196.052 19.8964 194.772 21.0755C193.525 22.2226 192.901 24.0231 192.901 26.4767V38.6176H185.414ZM218.522 39C215.578 39 212.987 38.4264 210.747 37.2792C208.539 36.1321 206.828 34.5706 205.612 32.595C204.396 30.5874 203.788 28.309 203.788 25.7597C203.788 23.1786 204.38 20.9002 205.564 18.9245C206.78 16.917 208.427 15.3556 210.507 14.2403C212.587 13.0931 214.938 12.5195 217.562 12.5195C220.09 12.5195 222.361 13.0612 224.377 14.1447C226.425 15.1962 228.04 16.7258 229.224 18.7333C230.408 20.709 231 23.083 231 25.8553C231 26.1421 230.984 26.4767 230.952 26.8591C230.92 27.2096 230.888 27.5442 230.856 27.8629H209.883V23.5132H226.921L224.041 24.8038C224.041 23.4654 223.769 22.3023 223.225 21.3145C222.681 20.3266 221.929 19.5618 220.969 19.0201C220.01 18.4465 218.89 18.1597 217.61 18.1597C216.33 18.1597 215.194 18.4465 214.202 19.0201C213.243 19.5618 212.491 20.3426 211.947 21.3623C211.403 22.3501 211.131 23.5291 211.131 24.8994V26.0465C211.131 27.4486 211.435 28.6914 212.043 29.7748C212.683 30.8264 213.563 31.639 214.682 32.2126C215.834 32.7543 217.178 33.0252 218.714 33.0252C220.09 33.0252 221.289 32.818 222.313 32.4038C223.369 31.9895 224.329 31.3681 225.193 30.5396L229.176 34.8415C227.992 36.1799 226.505 37.2155 224.713 37.9484C222.921 38.6495 220.857 39 218.522 39Z"/>
</mask>
<path d="M8.19895 20.2151H24.3246V26.4289H8.19895V20.2151ZM8.77486 38.6176H1V5.15849H26.3883V11.3723H8.77486V38.6176ZM41.409 39C39.2653 39 37.3456 38.5857 35.6498 37.7572C33.9861 36.9287 32.6902 35.67 31.7624 33.9811C30.8345 32.2604 30.3706 30.0776 30.3706 27.4327V12.9019H37.8575V26.3333C37.8575 28.4683 38.3054 30.0457 39.2013 31.0654C40.1292 32.0532 41.425 32.5472 43.0887 32.5472C44.2406 32.5472 45.2644 32.3082 46.1603 31.8302C47.0561 31.3203 47.76 30.5556 48.272 29.5358C48.7839 28.4843 49.0399 27.1778 49.0399 25.6164V12.9019H56.5268V38.6176H49.4238V31.5434L50.7196 33.5987C49.8557 35.3832 48.5759 36.7375 46.8802 37.6616C45.2164 38.5539 43.3927 39 41.409 39ZM63.4629 38.6176V12.9019H70.6138V20.1673L69.606 18.0642C70.3739 16.2478 71.6057 14.8776 73.3014 13.9535C74.9972 12.9975 77.0609 12.5195 79.4925 12.5195V19.4025C79.1726 19.3706 78.8846 19.3547 78.6287 19.3547C78.3727 19.3229 78.1007 19.3069 77.8128 19.3069C75.7651 19.3069 74.1013 19.8964 72.8215 21.0755C71.5737 22.2226 70.9498 24.0231 70.9498 26.4767V38.6176H63.4629ZM99.6848 12.5195C101.733 12.5195 103.556 12.9338 105.156 13.7623C106.788 14.5589 108.068 15.8017 108.995 17.4906C109.923 19.1476 110.387 21.2826 110.387 23.8956V38.6176H102.9V25.0428C102.9 22.9715 102.436 21.4419 101.509 20.4541C100.613 19.4662 99.3329 18.9723 97.6691 18.9723C96.4853 18.9723 95.4134 19.2273 94.4536 19.7371C93.5257 20.2151 92.7898 20.9639 92.2459 21.9836C91.734 23.0034 91.478 24.3099 91.478 25.9031V38.6176H83.9911V12.9019H91.1421V20.0239L89.7983 17.873C90.7261 16.1522 92.0539 14.8298 93.7817 13.9057C95.5094 12.9816 97.4771 12.5195 99.6848 12.5195ZM117.174 38.6176V12.9019H124.661V38.6176H117.174ZM120.917 9.31698C119.541 9.31698 118.422 8.91866 117.558 8.12201C116.694 7.32537 116.262 6.33753 116.262 5.15849C116.262 3.97946 116.694 2.99162 117.558 2.19497C118.422 1.39832 119.541 1 120.917 1C122.293 1 123.413 1.38239 124.277 2.14717C125.141 2.88009 125.573 3.83606 125.573 5.0151C125.573 6.25786 125.141 7.2935 124.277 8.12201C123.445 8.91866 122.325 9.31698 120.917 9.31698ZM142.168 39C139.128 39 136.76 38.2352 135.065 36.7057C133.369 35.1442 132.521 32.834 132.521 29.7748V7.21384H140.008V29.6792C140.008 30.7627 140.296 31.6071 140.872 32.2126C141.448 32.7862 142.232 33.073 143.223 33.073C144.407 33.073 145.415 32.7543 146.247 32.117L148.263 37.3748C147.495 37.9166 146.567 38.3308 145.479 38.6176C144.423 38.8725 143.319 39 142.168 39ZM128.538 19.2113V13.4755H146.439V19.2113H128.538ZM163.36 39C161.216 39 159.296 38.5857 157.601 37.7572C155.937 36.9287 154.641 35.67 153.713 33.9811C152.785 32.2604 152.322 30.0776 152.322 27.4327V12.9019H159.808V26.3333C159.808 28.4683 160.256 30.0457 161.152 31.0654C162.08 32.0532 163.376 32.5472 165.04 32.5472C166.191 32.5472 167.215 32.3082 168.111 31.8302C169.007 31.3203 169.711 30.5556 170.223 29.5358C170.735 28.4843 170.991 27.1778 170.991 25.6164V12.9019H178.478V38.6176H171.375V31.5434L172.671 33.5987C171.807 35.3832 170.527 36.7375 168.831 37.6616C167.167 38.5539 165.344 39 163.36 39ZM185.414 38.6176V12.9019H192.565V20.1673L191.557 18.0642C192.325 16.2478 193.557 14.8776 195.252 13.9535C196.948 12.9975 199.012 12.5195 201.443 12.5195V19.4025C201.123 19.3706 200.836 19.3547 200.58 19.3547C200.324 19.3229 200.052 19.3069 199.764 19.3069C197.716 19.3069 196.052 19.8964 194.772 21.0755C193.525 22.2226 192.901 24.0231 192.901 26.4767V38.6176H185.414ZM218.522 39C215.578 39 212.987 38.4264 210.747 37.2792C208.539 36.1321 206.828 34.5706 205.612 32.595C204.396 30.5874 203.788 28.309 203.788 25.7597C203.788 23.1786 204.38 20.9002 205.564 18.9245C206.78 16.917 208.427 15.3556 210.507 14.2403C212.587 13.0931 214.938 12.5195 217.562 12.5195C220.09 12.5195 222.361 13.0612 224.377 14.1447C226.425 15.1962 228.04 16.7258 229.224 18.7333C230.408 20.709 231 23.083 231 25.8553C231 26.1421 230.984 26.4767 230.952 26.8591C230.92 27.2096 230.888 27.5442 230.856 27.8629H209.883V23.5132H226.921L224.041 24.8038C224.041 23.4654 223.769 22.3023 223.225 21.3145C222.681 20.3266 221.929 19.5618 220.969 19.0201C220.01 18.4465 218.89 18.1597 217.61 18.1597C216.33 18.1597 215.194 18.4465 214.202 19.0201C213.243 19.5618 212.491 20.3426 211.947 21.3623C211.403 22.3501 211.131 23.5291 211.131 24.8994V26.0465C211.131 27.4486 211.435 28.6914 212.043 29.7748C212.683 30.8264 213.563 31.639 214.682 32.2126C215.834 32.7543 217.178 33.0252 218.714 33.0252C220.09 33.0252 221.289 32.818 222.313 32.4038C223.369 31.9895 224.329 31.3681 225.193 30.5396L229.176 34.8415C227.992 36.1799 226.505 37.2155 224.713 37.9484C222.921 38.6495 220.857 39 218.522 39Z" fill="black"/>
<path d="M8.19895 20.2151H24.3246V26.4289H8.19895V20.2151ZM8.77486 38.6176H1V5.15849H26.3883V11.3723H8.77486V38.6176ZM41.409 39C39.2653 39 37.3456 38.5857 35.6498 37.7572C33.9861 36.9287 32.6902 35.67 31.7624 33.9811C30.8345 32.2604 30.3706 30.0776 30.3706 27.4327V12.9019H37.8575V26.3333C37.8575 28.4683 38.3054 30.0457 39.2013 31.0654C40.1292 32.0532 41.425 32.5472 43.0887 32.5472C44.2406 32.5472 45.2644 32.3082 46.1603 31.8302C47.0561 31.3203 47.76 30.5556 48.272 29.5358C48.7839 28.4843 49.0399 27.1778 49.0399 25.6164V12.9019H56.5268V38.6176H49.4238V31.5434L50.7196 33.5987C49.8557 35.3832 48.5759 36.7375 46.8802 37.6616C45.2164 38.5539 43.3927 39 41.409 39ZM63.4629 38.6176V12.9019H70.6138V20.1673L69.606 18.0642C70.3739 16.2478 71.6057 14.8776 73.3014 13.9535C74.9972 12.9975 77.0609 12.5195 79.4925 12.5195V19.4025C79.1726 19.3706 78.8846 19.3547 78.6287 19.3547C78.3727 19.3229 78.1007 19.3069 77.8128 19.3069C75.7651 19.3069 74.1013 19.8964 72.8215 21.0755C71.5737 22.2226 70.9498 24.0231 70.9498 26.4767V38.6176H63.4629ZM99.6848 12.5195C101.733 12.5195 103.556 12.9338 105.156 13.7623C106.788 14.5589 108.068 15.8017 108.995 17.4906C109.923 19.1476 110.387 21.2826 110.387 23.8956V38.6176H102.9V25.0428C102.9 22.9715 102.436 21.4419 101.509 20.4541C100.613 19.4662 99.3329 18.9723 97.6691 18.9723C96.4853 18.9723 95.4134 19.2273 94.4536 19.7371C93.5257 20.2151 92.7898 20.9639 92.2459 21.9836C91.734 23.0034 91.478 24.3099 91.478 25.9031V38.6176H83.9911V12.9019H91.1421V20.0239L89.7983 17.873C90.7261 16.1522 92.0539 14.8298 93.7817 13.9057C95.5094 12.9816 97.4771 12.5195 99.6848 12.5195ZM117.174 38.6176V12.9019H124.661V38.6176H117.174ZM120.917 9.31698C119.541 9.31698 118.422 8.91866 117.558 8.12201C116.694 7.32537 116.262 6.33753 116.262 5.15849C116.262 3.97946 116.694 2.99162 117.558 2.19497C118.422 1.39832 119.541 1 120.917 1C122.293 1 123.413 1.38239 124.277 2.14717C125.141 2.88009 125.573 3.83606 125.573 5.0151C125.573 6.25786 125.141 7.2935 124.277 8.12201C123.445 8.91866 122.325 9.31698 120.917 9.31698ZM142.168 39C139.128 39 136.76 38.2352 135.065 36.7057C133.369 35.1442 132.521 32.834 132.521 29.7748V7.21384H140.008V29.6792C140.008 30.7627 140.296 31.6071 140.872 32.2126C141.448 32.7862 142.232 33.073 143.223 33.073C144.407 33.073 145.415 32.7543 146.247 32.117L148.263 37.3748C147.495 37.9166 146.567 38.3308 145.479 38.6176C144.423 38.8725 143.319 39 142.168 39ZM128.538 19.2113V13.4755H146.439V19.2113H128.538ZM163.36 39C161.216 39 159.296 38.5857 157.601 37.7572C155.937 36.9287 154.641 35.67 153.713 33.9811C152.785 32.2604 152.322 30.0776 152.322 27.4327V12.9019H159.808V26.3333C159.808 28.4683 160.256 30.0457 161.152 31.0654C162.08 32.0532 163.376 32.5472 165.04 32.5472C166.191 32.5472 167.215 32.3082 168.111 31.8302C169.007 31.3203 169.711 30.5556 170.223 29.5358C170.735 28.4843 170.991 27.1778 170.991 25.6164V12.9019H178.478V38.6176H171.375V31.5434L172.671 33.5987C171.807 35.3832 170.527 36.7375 168.831 37.6616C167.167 38.5539 165.344 39 163.36 39ZM185.414 38.6176V12.9019H192.565V20.1673L191.557 18.0642C192.325 16.2478 193.557 14.8776 195.252 13.9535C196.948 12.9975 199.012 12.5195 201.443 12.5195V19.4025C201.123 19.3706 200.836 19.3547 200.58 19.3547C200.324 19.3229 200.052 19.3069 199.764 19.3069C197.716 19.3069 196.052 19.8964 194.772 21.0755C193.525 22.2226 192.901 24.0231 192.901 26.4767V38.6176H185.414ZM218.522 39C215.578 39 212.987 38.4264 210.747 37.2792C208.539 36.1321 206.828 34.5706 205.612 32.595C204.396 30.5874 203.788 28.309 203.788 25.7597C203.788 23.1786 204.38 20.9002 205.564 18.9245C206.78 16.917 208.427 15.3556 210.507 14.2403C212.587 13.0931 214.938 12.5195 217.562 12.5195C220.09 12.5195 222.361 13.0612 224.377 14.1447C226.425 15.1962 228.04 16.7258 229.224 18.7333C230.408 20.709 231 23.083 231 25.8553C231 26.1421 230.984 26.4767 230.952 26.8591C230.92 27.2096 230.888 27.5442 230.856 27.8629H209.883V23.5132H226.921L224.041 24.8038C224.041 23.4654 223.769 22.3023 223.225 21.3145C222.681 20.3266 221.929 19.5618 220.969 19.0201C220.01 18.4465 218.89 18.1597 217.61 18.1597C216.33 18.1597 215.194 18.4465 214.202 19.0201C213.243 19.5618 212.491 20.3426 211.947 21.3623C211.403 22.3501 211.131 23.5291 211.131 24.8994V26.0465C211.131 27.4486 211.435 28.6914 212.043 29.7748C212.683 30.8264 213.563 31.639 214.682 32.2126C215.834 32.7543 217.178 33.0252 218.714 33.0252C220.09 33.0252 221.289 32.818 222.313 32.4038C223.369 31.9895 224.329 31.3681 225.193 30.5396L229.176 34.8415C227.992 36.1799 226.505 37.2155 224.713 37.9484C222.921 38.6495 220.857 39 218.522 39Z" stroke="#282A30" stroke-width="2" mask="url(#path-1-outside-1_1_22)"/>
</svg>
