<svg width="29" height="29" viewBox="0 0 29 29" fill="none" xmlns="http://www.w3.org/2000/svg">
<path d="M5.5 1L1 6.4V25.3C1 26.0161 1.31607 26.7028 1.87868 27.2092C2.44129 27.7155 3.20435 28 4 28H25C25.7956 28 26.5587 27.7155 27.1213 27.2092C27.6839 26.7028 28 26.0161 28 25.3V6.4L23.5 1H5.5Z" stroke="black" stroke-width="2" stroke-linecap="round" stroke-linejoin="round"/>
<path d="M1 6.39999H28" stroke="black" stroke-width="2" stroke-linecap="round" stroke-linejoin="round"/>
<path d="M20.5 11.8C20.5 13.2322 19.8679 14.6057 18.7426 15.6184C17.6174 16.6311 16.0913 17.2 14.5 17.2C12.9087 17.2 11.3826 16.6311 10.2574 15.6184C9.13214 14.6057 8.5 13.2322 8.5 11.8" stroke="black" stroke-width="2" stroke-linecap="round" stroke-linejoin="round"/>
</svg>
